<?xml version="1.0" encoding="utf-8"?>
<!-- Generator: Adobe Illustrator 25.4.1, SVG Export Plug-In . SVG Version: 6.00 Build 0)  -->
<svg version="1.1" id="Layer_1" xmlns="http://www.w3.org/2000/svg" xmlns:xlink="http://www.w3.org/1999/xlink" x="0px" y="0px"
	 viewBox="0 0 492 492" style="enable-background:new 0 0 492 492;" xml:space="preserve">
<style type="text/css">
	.st0{fill-rule:evenodd;clip-rule:evenodd;fill:#FFFFFF;}
</style>
<path class="st0" d="M246.3,1C110.9,1,0.5,111.4,0.5,246.7c0,135.4,110.4,245.8,245.8,245.8c135.4,0,245.8-110.4,245.8-245.8
	C492,111.4,381.6,1,246.3,1z M341.7,274.2c-13.8,11.6-31.6,16.6-49.3,19.1c2.1,2.7,3.9,6,5.4,10c2,5.3,3.2,11.8,3.2,19.5
	c0,13.7-0.1,28-0.2,37.4c0,3.5,0,6.1,0,9.5h0c0,0.4,0,0.9,0.1,1.4c0.2,1.1,0.7,2.2,1.6,3c0.5,0.4,1.1,0.8,1.8,1l5.4,0l0.5,5.7
	c-1.3,0.2-2.5,0.4-3.6,0.4c-1.1,0-2.1-0.1-3-0.3l-96.3,0c-0.9,0.2-1.9,0.3-2.9,0.3c-1,0-2.2-0.1-3.4-0.3l0.5-5.7l5.1,0
	c0.8-0.2,1.5-0.6,2-1.1c0.9-0.8,1.4-1.9,1.6-3.1c0.1-0.4,0.1-0.8,0.1-1.3c0-3.1,0-5.9-0.1-9.8c0-4.3-0.1-9.7-0.1-15.8
	c-46.3,8.4-57.1-24.1-57.5-25.5c-7.4-18.6-17.5-23.3-17.5-23.4l-0.4-0.2c-23.3-15.9,2.7-15.6,2.8-15.6h0.2
	c18.2,1.3,27.9,18.1,28.5,19l0,0c5.5,9.5,12.4,14.2,19.1,16.1c9.8,2.8,19.7,0,25.6-2.5c0.8-4.8,2.1-9,3.8-12.5
	c1.1-2.4,2.4-4.5,3.8-6.3c-17.7-2.5-35.4-7.6-49.2-19.3c-15.3-12.9-25.7-33.7-25.7-67.4h0c0-9.4,1.6-18,4.6-25.8
	c3-7.7,7.2-14.6,12.6-20.7c-1-2.9-2.4-7.9-2.9-14.6c-0.5-8.2,0.3-18.8,5.2-31.1l0.1-0.2c0,0,2.1-1.8,5.1-1.9c2-0.1,4.9,0,8.9,0.8
	c7.8,1.6,19.7,5.9,36.1,16.8c6.5-1.7,13.2-3.1,20-4c7.4-1,14.8-1.5,22.3-1.5h0c7.5,0,14.9,0.5,22.3,1.5c6.8,0.9,13.5,2.2,20,4
	c33-22.1,48.2-17.2,48.3-17.2l1.3,0.4l0.5,1.3c4.9,12.2,5.8,22.9,5.2,31.1c-0.4,6.7-1.9,11.7-2.9,14.6c5.3,6.1,9.6,13,12.5,20.7
	c3,7.8,4.6,16.4,4.6,25.8C367.5,240.6,357.1,261.3,341.7,274.2z"/>
</svg>
