<?xml version="1.0" encoding="utf-8"?>
<!-- Generator: Adobe Illustrator 25.4.1, SVG Export Plug-In . SVG Version: 6.00 Build 0)  -->
<svg version="1.1" id="Layer_1" xmlns="http://www.w3.org/2000/svg" xmlns:xlink="http://www.w3.org/1999/xlink" x="0px" y="0px"
	 viewBox="0 0 492 492" style="enable-background:new 0 0 492 492;" xml:space="preserve">
<style type="text/css">
	.st0{fill-rule:evenodd;clip-rule:evenodd;fill:#FFFFFF;}
</style>
<g>
	<polygon class="st0" points="246.3,233.6 246.8,234 343.4,161.8 149.1,161.8 245.7,234 	"/>
	<path class="st0" d="M246.8,271.6l-0.5-0.4l-0.5,0.4l-0.2-0.1c-36.3-25.6-72.1-52.6-108.3-79.6v139.8h218.1V191.9
		c-36.1,26.9-71.9,54-108.3,79.6L246.8,271.6z"/>
	<path class="st0" d="M246.3,1C110.9,1,0.5,111.4,0.5,246.7c0,135.4,110.4,245.8,245.8,245.8c135.4,0,245.8-110.4,245.8-245.8
		C492,111.4,381.6,1,246.3,1z M380.7,322.8c0,9.7-8,17.7-17.7,17.7h-1.6h-6.1H137.2h-6.1h-1.6c-9.7,0-17.7-8-17.7-17.7V170.7
		c0-9.7,8-17.7,17.7-17.7h1.6h6.1h218.1h6.1h1.6c9.7,0,17.7,8,17.7,17.7V322.8z"/>
</g>
</svg>
