<?xml version="1.0" encoding="utf-8"?>
<!-- Generator: Adobe Illustrator 25.4.1, SVG Export Plug-In . SVG Version: 6.00 Build 0)  -->
<svg version="1.1" id="Layer_1" xmlns="http://www.w3.org/2000/svg" xmlns:xlink="http://www.w3.org/1999/xlink" x="0px" y="0px"
	 viewBox="0 0 37.1 53.8" style="enable-background:new 0 0 37.1 53.8;" xml:space="preserve">
<style type="text/css">
	.st0{fill:#E813A8;}
</style>
<path class="st0" d="M37.1,24.8c0-3.4-0.6-6.9-1.7-10.1c-1-2.9-2.7-5.6-4.8-7.8c-2.1-2.2-4.7-3.9-7.5-5.1C19.9,0.6,16.5,0,13.1,0H0
	v7.1h7v15.5c0.9-1.3,2.1-2.4,3.5-3.2c1.4-0.8,3-1.2,4.6-1.2c1.4,0,2.7,0.2,4,0.6c1.2,0.4,2.2,1.1,3.1,2c0.9,1,1.6,2.2,2,3.5
	c0.5,1.6,0.8,3.4,0.7,5.1v17.1h-6.1V29.4c0-0.9-0.1-1.9-0.4-2.7c-0.2-0.7-0.6-1.3-1.1-1.9c-0.5-0.5-1.1-0.9-1.8-1.1
	c-0.8-0.3-1.6-0.4-2.4-0.4c-1.2,0-2.4,0.3-3.5,0.8c-1,0.5-1.9,1.3-2.5,2.2v20.2H0v7.1h13.4c3.3,0.1,6.7-0.6,9.8-1.8
	c2.8-1.1,5.3-2.9,7.4-5.1c2.1-2.3,3.7-4.9,4.7-7.8c1.1-3.2,1.7-6.7,1.7-10.1L37.1,24.8z"/>
</svg>
