<?xml version="1.0" encoding="utf-8"?>
<!-- Generator: Adobe Illustrator 25.4.1, SVG Export Plug-In . SVG Version: 6.00 Build 0)  -->
<svg version="1.1" id="Layer_1" xmlns="http://www.w3.org/2000/svg" xmlns:xlink="http://www.w3.org/1999/xlink" x="0px" y="0px"
	 viewBox="0 0 492 492" style="enable-background:new 0 0 492 492;" xml:space="preserve">
<style type="text/css">
	.st0{fill-rule:evenodd;clip-rule:evenodd;fill:#FFFFFF;}
</style>
<path class="st0" d="M246.3,1C110.9,1,0.5,111.4,0.5,246.7c0,135.4,110.4,245.8,245.8,245.8c135.4,0,245.8-110.4,245.8-245.8
	C492,111.4,381.6,1,246.3,1z M130.5,120.4c5-5,11.9-8.1,19.5-8.1l0,0c7.6,0.1,14.5,3.2,19.5,8.2c5,5,8.1,11.9,8.1,19.4
	c0,7.7-3.1,14.6-8.1,19.6c-5,5-11.9,8.1-19.5,8.1c-7.6,0-14.5-3.1-19.5-8.1c-5-5-8.1-11.9-8.1-19.6
	C122.4,132.3,125.5,125.4,130.5,120.4z M179.3,193.5v184.7v2.9h-2.9h-52.8h-2.9v-2.9V193.5v-2.9h2.9h52.8h2.9V193.5z M371.8,378.3
	v2.9H369h-52.7h-2.9v-2.9V264.2c0-6.1-0.8-11.3-3.4-14.7c-2.5-3.3-6.8-5.2-14-5.2c-23.2,0-29,17.6-29.8,20.3v113.8v2.9h-2.9h-52.7
	h-2.9v-2.9V193.5v-2.9h2.9h52.7h2.9v2.9v12.2c3.9-2.5,9.1-5.5,15.4-8.1c9.3-3.8,20.9-6.9,34.6-6.9c10.9,0,28.7,3.9,41.3,21.1
	c8.3,11.3,14.2,28.3,14.2,53.8V378.3z"/>
</svg>
