<?xml version="1.0" encoding="utf-8"?>
<!-- Generator: Adobe Illustrator 25.4.1, SVG Export Plug-In . SVG Version: 6.00 Build 0)  -->
<svg version="1.1" id="Layer_1" xmlns="http://www.w3.org/2000/svg" xmlns:xlink="http://www.w3.org/1999/xlink" x="0px" y="0px"
	 viewBox="0 0 492 492" style="enable-background:new 0 0 492 492;" xml:space="preserve">
<style type="text/css">
	.st0{fill-rule:evenodd;clip-rule:evenodd;fill:#FFFFFF;}
</style>
<path class="st0" d="M246.3,1C110.9,1,0.5,111.4,0.5,246.7c0,135.4,110.4,245.8,245.8,245.8c135.4,0,245.8-110.4,245.8-245.8
	C492,111.4,381.6,1,246.3,1z M380.2,166.8c-3.7,5.5-7.9,10.8-12.6,15.6c-4.3,4.4-8.9,8.5-13.9,12.2l0.1,5.3c0,0.1,0,0.2,0,0.3
	c0,39.2-16.1,81.7-46.9,112.4c-26.2,26.2-63,43.9-109.5,43.9c-15.2,0-30-2.2-43.9-6.3c-14.4-4.2-27.9-10.4-40.2-18.3
	c-1-0.5-1.6-1.6-1.5-2.8c0.2-1.6,1.6-2.7,3.2-2.5l0,0c2.1,0.2,4.2,0.4,6.2,0.5c2,0.1,4.1,0.2,6.3,0.2c12.1,0,23.7-2,34.6-5.7
	c8.8-3,17.1-7.2,24.7-12.3c-9.3-1.5-17.8-5.2-25-10.5c-9.3-6.9-16.5-16.7-20.2-28c-0.2-0.5-0.3-1.1-0.2-1.6c0.3-1.6,1.8-2.6,3.3-2.3
	l0,0c1.6,0.3,3.2,0.5,4.8,0.7c1.5,0.1,3.2,0.2,4.9,0.2c0.6,0,1.1,0,1.7,0c-8.1-3.7-15.2-9.2-20.8-16c-8-9.8-12.8-22.3-12.8-36V215
	c0-0.5,0.1-1,0.4-1.4c0.8-1.4,2.5-1.9,3.9-1.1l0,0c3.6,2,7.3,3.5,11.3,4.6c0.7,0.2,1.4,0.4,2.1,0.5c-4.2-4.1-7.8-8.8-10.6-14
	c-4.3-8-6.7-17.1-6.7-26.8c0-5.1,0.7-10.1,2-14.8c1.3-4.8,3.2-9.3,5.6-13.5c0.2-0.4,0.4-0.7,0.8-1c1.2-1,3-0.8,4,0.4l-2.2,1.8
	l2.2-1.8c13.3,16.3,29.9,29.7,48.8,39.3c17.3,8.7,36.4,14.3,56.8,15.8c-0.1-0.9-0.3-1.8-0.4-2.6c-0.2-2.2-0.4-4.4-0.4-6.6
	c0-15.7,6.4-29.9,16.6-40.2c10.3-10.3,24.5-16.6,40.2-16.6c8,0,15.6,1.7,22.6,4.7c6.7,2.9,12.7,7,17.7,12.1
	c5.4-1.1,10.7-2.7,15.7-4.6c5.6-2.1,11-4.7,16.1-7.7c0.7-0.5,1.6-0.6,2.5-0.4c1.5,0.5,2.3,2.1,1.8,3.6l0,0c-2.1,6.6-5.4,12.7-9.7,18
	c-1.7,2.2-3.6,4.2-5.7,6.1c1.3-0.3,2.6-0.6,3.9-1c5-1.4,9.9-3.1,14.6-5.2c0.9-0.5,2.1-0.5,3,0.1
	C380.7,163.7,381.1,165.4,380.2,166.8z"/>
</svg>
